HIERARCHY
ROOT Hips
{
    OFFSET 0.000000 0.000000 0.000000
    CHANNELS 6 Xposition Yposition Zposition Zrotation Xrotation Yrotation
    JOINT Spine
    {
        OFFSET -0.000000 14.517291 0.000000
        CHANNELS 3 Zrotation Xrotation Yrotation
        JOINT Spine1
        {
            OFFSET -0.000000 37.558300 0.000000
            CHANNELS 3 Zrotation Xrotation Yrotation
            JOINT Neck
            {
                OFFSET -0.000000 37.404057 3.400369
                CHANNELS 3 Zrotation Xrotation Yrotation
                JOINT Head
                {
                    OFFSET -0.000000 24.785618 -3.540803
                    CHANNELS 3 Zrotation Xrotation Yrotation
                    End Site
                    {
                        OFFSET -0.000000 35.408028 0.000000
                    }
                }
            }
            JOINT LeftShoulder
            {
                OFFSET 6.992933 33.973492 -0.192664
                CHANNELS 3 Zrotation Xrotation Yrotation
                JOINT LeftArm
                {
                    OFFSET 21.527611 0.000000 0.000000
                    CHANNELS 3 Zrotation Xrotation Yrotation
                    JOINT LeftForeArm
                    {
                        OFFSET 56.353916 0.000000 0.000000
                        CHANNELS 3 Zrotation Xrotation Yrotation
                        JOINT LeftHand
                        {
                            OFFSET 47.774071 0.000000 0.000000
                            CHANNELS 3 Zrotation Xrotation Yrotation
                            End Site
                            {
                                OFFSET 26.556021 0.000000 0.000000
                            }
                        }
                    }
                }
            }
            JOINT RightShoulder
            {
                OFFSET -7.065357 33.973492 -0.192664
                CHANNELS 3 Zrotation Xrotation Yrotation
                JOINT RightArm
                {
                    OFFSET -21.527611 0.000000 0.000000
                    CHANNELS 3 Zrotation Xrotation Yrotation
                    JOINT RightForeArm
                    {
                        OFFSET -56.353916 0.000000 0.000000
                        CHANNELS 3 Zrotation Xrotation Yrotation
                        JOINT RightHand
                        {
                            OFFSET -47.774071 0.000000 0.000000
                            CHANNELS 3 Zrotation Xrotation Yrotation
                            End Site
                            {
                                OFFSET -26.556021 0.000000 0.000000
                            }
                        }
                    }
                }
            }
        }
    }
    JOINT LeftUpLeg
    {
        OFFSET 17.704014 0.000000 0.000000
        CHANNELS 3 Zrotation Xrotation Yrotation
        JOINT LeftLeg
        {
            OFFSET -0.000000 -81.181816 0.000000
            CHANNELS 3 Zrotation Xrotation Yrotation
            JOINT LeftFoot
            {
                OFFSET -0.000000 -62.821102 0.000000
                CHANNELS 3 Zrotation Xrotation Yrotation
                JOINT LeftToeBase
                {
                    OFFSET -0.000000 -11.507608 26.556021
                    CHANNELS 3 Zrotation Xrotation Yrotation
                    End Site
                    {
                        OFFSET -0.000000 0.000000 7.081605
                    }
                }
            }
        }
    }
    JOINT RightUpLeg
    {
        OFFSET -17.704014 0.000000 0.000000
        CHANNELS 3 Zrotation Xrotation Yrotation
        JOINT RightLeg
        {
            OFFSET -0.000000 -81.181816 0.000000
            CHANNELS 3 Zrotation Xrotation Yrotation
            JOINT RightFoot
            {
                OFFSET -0.000000 -62.821102 0.000000
                CHANNELS 3 Zrotation Xrotation Yrotation
                JOINT RightToeBase
                {
                    OFFSET -0.000000 -11.507608 26.556021
                    CHANNELS 3 Zrotation Xrotation Yrotation
                    End Site
                    {
                        OFFSET -0.000000 0.000000 7.081605
                    }
                }
            }
        }
    }
}
MOTION
Frames:    5
Frame Time:    0.008333
-18.430576    165.797943    -26.522863    -10.964293    -4.907906    38.581654    0.311181    0.707416    -4.115120    13.306504    14.614240    -3.084223    46.987457    21.142887    -3.988914    -23.695244    -26.430836    -10.584025    19.477890    12.016700    -29.356276    -28.922617    19.453619    -63.919659    7.271227    -41.242653    -95.403564    -9.241208    -33.974064    -14.440987    16.942339    7.774512    -7.297697    20.315985    -4.905967    28.824196    -28.157127    -16.205816    61.112282    -8.543172    -1.671618    30.539396    11.330606    -12.468086    8.520179    -3.655339    29.583252    -16.424212    7.809301    -12.265160    33.815895    0.000000    0.000000    0.000000    -61.243282    -44.864727    -25.918083    -45.999100    -40.861343    -41.424171    7.157173    67.966133    -15.196036    0.000000    0.000000    0.000000    
-18.468622    165.807373    -26.517666    -10.977660    -4.926190    38.593357    0.313572    0.702395    -4.117632    13.304586    14.586493    -3.081536    46.951420    21.100199    -3.956914    -23.696293    -26.451653    -10.577932    19.456682    11.988672    -29.308777    -28.984787    19.381382    -63.923035    6.663677    -40.950211    -95.886292    -7.960435    -34.330128    -13.812105    16.936069    7.739257    -7.304107    20.334227    -4.970167    28.836769    -28.095640    -16.133673    61.159775    -8.588752    -1.640512    30.643841    11.366333    -12.468222    8.484246    -3.674626    29.569227    -16.399399    7.793216    -12.260981    33.812481    0.000000    0.000000    0.000000    -119.203743    -48.346291    -76.421234    4.666084    20.667480    -5.870419    12.308744    29.136059    -18.264732    0.000000    0.000000    0.000000    
-18.513451    165.824371    -26.518118    -10.993211    -4.944726    38.601265    0.312719    0.706839    -4.117801    13.303853    14.551917    -3.077411    46.879292    21.047829    -3.900520    -23.630533    -26.463339    -10.526029    19.428740    11.950460    -29.268778    -29.062021    19.369347    -63.868858    7.149432    -41.081032    -95.511696    -9.151029    -33.905891    -14.431057    16.927965    7.718626    -7.313533    20.354801    -5.001999    28.853148    -28.068285    -16.105955    61.194420    -8.572572    -1.617774    30.704395    11.411559    -12.479857    8.461752    -3.696821    29.578892    -16.391510    7.767129    -12.256487    33.808109    0.000000    0.000000    0.000000    -119.162476    -48.374638    -76.438560    4.591208    20.686932    -5.863377    12.292652    29.127428    -18.243563    0.000000    0.000000    0.000000    
-18.566036    165.847565    -26.528082    -11.022222    -4.962646    38.602566    0.317772    0.719158    -4.105081    13.299472    14.500523    -3.066533    46.867901    20.942131    -3.830268    -23.647774    -26.407177    -10.499704    19.437460    11.923537    -29.249990    -29.113024    19.308287    -63.876286    6.630819    -40.873211    -95.936584    -8.032983    -34.260246    -13.868486    16.941280    7.698197    -7.343826    20.358150    -5.006753    28.882793    -28.071001    -16.089020    61.205391    -8.571626    -1.593608    30.697321    11.474936    -12.505392    8.428480    -3.739438    29.590750    -16.366310    7.749921    -12.237097    33.812668    0.000000    0.000000    0.000000    -119.119453    -48.402370    -76.479637    4.534526    20.697481    -5.815605    12.277907    29.121197    -18.253801    0.000000    0.000000    0.000000    
-18.622295    165.872162    -26.553625    -11.055272    -4.964368    38.604076    0.321628    0.725141    -4.093022    13.278302    14.441813    -3.052866    46.921299    20.866568    -3.769370    -23.753464    -26.387121    -10.506053    19.459019    11.900878    -29.246517    -29.136192    19.284464    -63.869110    6.687801    -40.920643    -95.919762    -8.114324    -34.252522    -13.879941    16.959442    7.679252    -7.354132    20.358562    -4.981145    28.883556    -28.080881    -16.128906    61.206745    -8.510996    -1.622923    30.839607    11.532950    -12.551516    8.408700    -3.783461    29.601273    -16.329807    7.705227    -12.218735    33.802486    0.000000    0.000000    0.000000    -119.080528    -48.422508    -76.497490    4.482413    20.680929    -5.782545    12.298197    29.127985    -18.263708    0.000000    0.000000    0.000000    
